<svg width="1792" height="1536" viewBox="0 0 1792 1536" fill="none" xmlns="http://www.w3.org/2000/svg">
<g clip-path="url(#clip0_104_288)">
<path d="M928 704C928 694.667 925 687 919 681C913 675 905.333 672 896 672C852 672 814.333 687.667 783 719C751.667 750.333 736 788 736 832C736 841.333 739 849 745 855C751 861 758.667 864 768 864C777.333 864 785 861 791 855C797 849 800 841.333 800 832C800 805.333 809.333 782.667 828 764C846.667 745.333 869.333 736 896 736C905.333 736 913 733 919 727C925 721 928 713.333 928 704ZM1152 834C1152 904.667 1127 965 1077 1015C1027 1065 966.667 1090 896 1090C825.333 1090 765 1065 715 1015C665 965 640 904.667 640 834C640 763.333 665 703 715 653C765 603 825.333 578 896 578C966.667 578 1027 603 1077 653C1127 703 1152 763.333 1152 834ZM128 1408H1664V1280H128V1408ZM1280 834C1280 728 1242.5 637.5 1167.5 562.5C1092.5 487.5 1002 450 896 450C790 450 699.5 487.5 624.5 562.5C549.5 637.5 512 728 512 834C512 940 549.5 1030.5 624.5 1105.5C699.5 1180.5 790 1218 896 1218C1002 1218 1092.5 1180.5 1167.5 1105.5C1242.5 1030.5 1280 940 1280 834ZM256 192H640V64H256V192ZM128 384H1664V128H836L772 256H128V384ZM1792 128V1408C1792 1443.33 1779.5 1473.5 1754.5 1498.5C1729.5 1523.5 1699.33 1536 1664 1536H128C92.6667 1536 62.5 1523.5 37.5 1498.5C12.5 1473.5 0 1443.33 0 1408V128C0 92.6667 12.5 62.5 37.5 37.5C62.5 12.5 92.6667 0 128 0H1664C1699.33 0 1729.5 12.5 1754.5 37.5C1779.5 62.5 1792 92.6667 1792 128Z" fill="black"/>
</g>
<defs>
<clipPath id="clip0_104_288">
<rect width="1792" height="1536" fill="white"/>
</clipPath>
</defs>
</svg>
